<?xml version="1.0" encoding="utf-8"?>
<!-- Generator: Adobe Illustrator 24.2.3, SVG Export Plug-In . SVG Version: 6.00 Build 0)  -->
<svg version="1.1" id="Layer_1" xmlns="http://www.w3.org/2000/svg" xmlns:xlink="http://www.w3.org/1999/xlink" x="0px" y="0px"
	 viewBox="0 0 841.89 595.28" style="enable-background:new 0 0 841.89 595.28;" xml:space="preserve">
<style type="text/css">
	.st0{fill:#D2DCFF;}
	.st1{fill:#86A2E2;}
	.st2{fill:#AEC3FF;}
	.st3{fill:#FE9ECC;}
	.st4{fill:#89AEFF;}
	.st5{fill:#6277D7;}
	.st6{fill:#FF78BA;}
	.st7{fill:#F9AFAB;}
	.st8{fill:#FCBEB7;}
	.st9{fill:#311643;}
	.st10{fill:#F49795;}
	.st11{fill:#FFFFFF;}
	.st12{fill:#8B9EE0;}
	.st13{fill:#2F3D6C;}
	.st14{fill:#4A5EA3;}
	.st15{fill:#4A62D3;}
	.st16{fill:none;}
</style>
<g>
	<g>
		<g>
			<path class="st0" d="M662.97,330.1h-3.38h-3.38h-52.77c11.1,0,20.1,9,20.1,20.1v25.79h-40.21h-10.5c-1.23,0-2.22,1-2.22,2.22v0.9
				c0,1.23,1,2.22,2.22,2.22h12.82h18.4c0,0,0,0,0,0h37.75h14.99h20.57c1.28,0,2.32-1.04,2.32-2.32v-32.19
				C679.69,337.58,672.21,330.1,662.97,330.1z"/>
			<path class="st1" d="M623.55,350.2c0-11.1-9-20.1-20.1-20.1l0,0h0c-11.1,0-20.1,9-20.1,20.1v25.79h40.21V350.2z"/>
		</g>
		<rect x="627.44" y="381.34" class="st0" width="5.99" height="129.55"/>
		<polygon class="st2" points="633.43,381.34 633.43,401.04 627.44,399.66 627.44,381.34 		"/>
		<path class="st3" d="M657.29,358.07v-46.94c0-1.63,1.32-2.94,2.94-2.94h7.53c3.58,0,6.49,2.9,6.49,6.49v0
			c0,3.58-2.9,6.49-6.49,6.49h-6.49v36.92c0,1.1-0.89,2-2,2l0,0C658.18,360.06,657.29,359.17,657.29,358.07z"/>
		<rect x="623.55" y="374.75" class="st2" width="56.15" height="1.24"/>
	</g>
	<g>
		<path class="st4" d="M471.37,255.82h-156.3c-4.4,0-7.96-3.57-7.96-7.96V99.04c0-4.4,3.57-7.96,7.96-7.96h156.3
			c4.4,0,7.96,3.57,7.96,7.96v148.81C479.33,252.25,475.77,255.82,471.37,255.82z"/>
		<path class="st0" d="M404.62,114.92h-74.16c-1.32,0-2.39-1.07-2.39-2.39l0,0c0-1.32,1.07-2.39,2.39-2.39h74.16
			c1.32,0,2.39,1.07,2.39,2.39l0,0C407.01,113.85,405.94,114.92,404.62,114.92z"/>
		<path class="st0" d="M380.78,126.85h-50.32c-1.32,0-2.39-1.07-2.39-2.39l0,0c0-1.32,1.07-2.39,2.39-2.39h50.32
			c1.32,0,2.39,1.07,2.39,2.39l0,0C383.17,125.78,382.1,126.85,380.78,126.85z"/>
		<path class="st5" d="M343.03,146.38h-13.25c-0.94,0-1.71-0.76-1.71-1.71l0,0c0-0.94,0.76-1.71,1.71-1.71h13.25
			c0.94,0,1.71,0.76,1.71,1.71l0,0C344.74,145.62,343.97,146.38,343.03,146.38z"/>
		<path class="st0" d="M440.27,205.01h-40.96c-0.94,0-1.71-0.76-1.71-1.71v-6.9c0-0.94,0.76-1.71,1.71-1.71h40.96
			c0.94,0,1.71,0.76,1.71,1.71v6.9C441.98,204.24,441.21,205.01,440.27,205.01z"/>
		<path class="st0" d="M456.77,223.75h-57.46c-0.94,0-1.71-0.76-1.71-1.71v-6.9c0-0.94,0.76-1.71,1.71-1.71h57.46
			c0.94,0,1.71,0.76,1.71,1.71v6.9C458.48,222.99,457.72,223.75,456.77,223.75z"/>
		<g>
			<path class="st0" d="M353.58,234.88c0-1.76,1.43-3.18,3.18-3.18c-12.39,0-22.47-10.08-22.47-22.47
				c0-12.39,10.08-22.47,22.47-22.47s22.47,10.08,22.47,22.47c0-1.76,1.43-3.18,3.18-3.18s3.18,1.43,3.18,3.18
				c0-15.9-12.94-28.84-28.84-28.84s-28.84,12.94-28.84,28.84c0,15.9,12.94,28.84,28.84,28.84
				C355,238.06,353.58,236.63,353.58,234.88z"/>
			<path class="st5" d="M382.41,206.04c-1.76,0-3.18,1.43-3.18,3.18c0,12.39-10.08,22.47-22.47,22.47c-1.76,0-3.18,1.43-3.18,3.18
				s1.43,3.18,3.18,3.18c15.9,0,28.84-12.94,28.84-28.84C385.6,207.46,384.17,206.04,382.41,206.04z"/>
		</g>
	</g>
	<g>
		<path class="st0" d="M574.8,201.49v41.2c0,1.45-1.18,2.63-2.63,2.63h-49.53c-1.45,0-2.63-1.18-2.63-2.63v-41.2
			c0-1.45,1.18-2.63,2.63-2.63h49.53C573.62,198.86,574.8,200.03,574.8,201.49z"/>
		<path class="st5" d="M574.8,201.49v7.77h-54.8v-7.77c0-1.45,1.18-2.63,2.63-2.63h49.53C573.62,198.86,574.8,200.03,574.8,201.49z"
			/>
		<g>
			<path class="st5" d="M534.86,202.15L534.86,202.15c-0.75,0-1.36-0.61-1.36-1.36v-3.88c0-0.75,0.61-1.36,1.36-1.36h0
				c0.75,0,1.36,0.61,1.36,1.36v3.88C536.21,201.54,535.61,202.15,534.86,202.15z"/>
			<path class="st5" d="M559.95,202.15L559.95,202.15c-0.75,0-1.36-0.61-1.36-1.36v-3.88c0-0.75,0.61-1.36,1.36-1.36l0,0
				c0.75,0,1.36,0.61,1.36,1.36v3.88C561.31,201.54,560.7,202.15,559.95,202.15z"/>
		</g>
		<g>
			<path class="st5" d="M535.65,228.45l5.85-5.25c0.3-0.27,0.6-0.57,0.89-0.91c0.3-0.34,0.45-0.74,0.45-1.19
				c0-0.51-0.18-0.91-0.55-1.2c-0.37-0.29-0.8-0.44-1.3-0.44c-0.6,0-1.06,0.18-1.39,0.55c-0.33,0.37-0.52,0.82-0.56,1.36l-3.19-0.23
				c0.04-0.78,0.21-1.46,0.49-2.03c0.28-0.57,0.66-1.05,1.13-1.44s1.02-0.67,1.65-0.86c0.63-0.19,1.32-0.29,2.05-0.29
				c0.68,0,1.32,0.1,1.91,0.29c0.6,0.19,1.11,0.48,1.55,0.85c0.44,0.38,0.78,0.85,1.03,1.41c0.25,0.57,0.37,1.23,0.37,1.98
				c0,0.48-0.05,0.92-0.15,1.31c-0.1,0.39-0.24,0.74-0.41,1.06c-0.18,0.32-0.39,0.61-0.63,0.88c-0.24,0.27-0.5,0.53-0.79,0.79
				l-4.57,3.93h6.68v2.81h-10.51V228.45z"/>
			<path class="st5" d="M553.69,226.45c-0.17,0.04-0.34,0.08-0.51,0.11c-0.17,0.03-0.35,0.04-0.53,0.04c-0.71,0-1.35-0.13-1.94-0.38
				c-0.58-0.26-1.08-0.6-1.49-1.04c-0.41-0.44-0.73-0.96-0.96-1.56c-0.23-0.6-0.34-1.24-0.34-1.92c0-0.78,0.15-1.49,0.44-2.12
				c0.29-0.63,0.69-1.17,1.19-1.63c0.5-0.45,1.1-0.8,1.78-1.05c0.68-0.25,1.42-0.37,2.21-0.37c0.78,0,1.51,0.12,2.2,0.37
				c0.69,0.25,1.28,0.6,1.79,1.05c0.5,0.45,0.9,1,1.19,1.63c0.29,0.63,0.44,1.34,0.44,2.12c0,0.54-0.05,1.03-0.15,1.48
				c-0.1,0.45-0.23,0.87-0.39,1.27c-0.16,0.4-0.35,0.78-0.57,1.14c-0.22,0.36-0.45,0.73-0.69,1.12l-3.3,5.15h-3.89L553.69,226.45z
				 M551.12,221.81c0,0.68,0.22,1.24,0.67,1.69c0.45,0.45,1.03,0.67,1.75,0.67c0.72,0,1.31-0.22,1.75-0.67
				c0.45-0.45,0.67-1.01,0.67-1.69s-0.22-1.24-0.67-1.69c-0.45-0.45-1.03-0.67-1.75-0.67c-0.72,0-1.31,0.22-1.75,0.67
				C551.34,220.57,551.12,221.13,551.12,221.81z"/>
		</g>
		<path class="st2" d="M553.7,239.74h-12.59c-0.31,0-0.55-0.25-0.55-0.55l0,0c0-0.31,0.25-0.55,0.55-0.55h12.59
			c0.31,0,0.55,0.25,0.55,0.55l0,0C554.25,239.49,554.01,239.74,553.7,239.74z"/>
	</g>
	<g>
		<path class="st3" d="M371.05,455.61c11.88-21.74-25.61-31.97-34.65-23.34C327.36,440.89,357.33,480.74,371.05,455.61z"/>
		<path class="st3" d="M386.81,448.97c23.31,0,12.76-41.68,2.79-41.68C377.12,407.29,359.89,448.97,386.81,448.97z"/>
		<path class="st3" d="M404.78,464.09c19.21,15.64,36.1-19.36,29.27-29.81S382.57,446.01,404.78,464.09z"/>
		<path class="st6" d="M380.28,474.44c-3.24-7.5-7.99-14.5-14.11-20.78c-10.41-10.69-21.36-15.7-21.47-15.75
			c-0.33-0.15-0.71,0-0.86,0.32c-0.15,0.33,0,0.71,0.32,0.86c0.11,0.05,10.87,4.98,21.1,15.51c6,6.17,10.65,13.03,13.83,20.38
			c0.36,0.83,0.69,1.68,1.02,2.53h1.39C381.12,476.48,380.71,475.46,380.28,474.44z"/>
		<path class="st6" d="M389.03,415.84c0.04-0.36-0.21-0.68-0.57-0.72c-0.36-0.04-0.68,0.21-0.72,0.57
			c-0.04,0.35-3.31,28.29-3.14,61.83h1.3C385.73,444.06,388.99,416.19,389.03,415.84z"/>
		<path class="st6" d="M427.57,438.96c-0.2-0.3-0.6-0.38-0.9-0.18c-0.09,0.06-9.44,6.35-19.06,16.69
			c-5.24,5.63-11.19,13.18-15.55,22.03h1.45c4.26-8.46,9.99-15.7,15.03-21.13c9.52-10.24,18.76-16.46,18.85-16.52
			C427.69,439.66,427.77,439.26,427.57,438.96z"/>
		<path class="st0" d="M385.9,477.51h-1.3h-3.1h-1.39h-18.08c-0.7,0-1.19,0.68-0.97,1.34l1.14,3.5l0.58,1.77l8.26,25.35
			c0.22,0.69,0.87,1.15,1.59,1.15h29.78c0.72,0,1.37-0.47,1.59-1.15l8.26-25.35l0.58-1.77l1.14-3.5c0.22-0.66-0.28-1.34-0.97-1.34
			h-19.5h-1.45H385.9z"/>
		<polygon class="st2" points="412.84,482.35 412.26,484.12 362.78,484.12 362.21,482.35 		"/>
	</g>
	<g>
		<path class="st5" d="M471.37,377.49h-156.3c-4.4,0-7.96-3.57-7.96-7.96V285c0-4.4,3.57-7.96,7.96-7.96h156.3
			c4.4,0,7.96,3.57,7.96,7.96v84.53C479.33,373.93,475.77,377.49,471.37,377.49z"/>
		<path class="st0" d="M460.12,308.27h-57.33c-0.94,0-1.71-0.76-1.71-1.71v0c0-0.94,0.76-1.71,1.71-1.71h57.33
			c0.94,0,1.71,0.76,1.71,1.71v0C461.83,307.51,461.06,308.27,460.12,308.27z"/>
		<path class="st0" d="M433.08,317.58h-30.29c-0.94,0-1.71-0.76-1.71-1.71l0,0c0-0.94,0.76-1.71,1.71-1.71h30.29
			c0.94,0,1.71,0.76,1.71,1.71l0,0C434.79,316.82,434.02,317.58,433.08,317.58z"/>
		<path class="st4" d="M422.3,351.98h-19.51c-0.94,0-1.71-0.76-1.71-1.71l0,0c0-0.94,0.76-1.71,1.71-1.71h19.51
			c0.94,0,1.71,0.76,1.71,1.71l0,0C424,351.21,423.24,351.98,422.3,351.98z"/>
		<path class="st0" d="M343.02,335.71v13.9c0,0.94-0.76,1.71-1.71,1.71h-6.9c-0.94,0-1.71-0.76-1.71-1.71v-13.9
			c0-0.94,0.76-1.71,1.71-1.71h6.9C342.25,334.01,343.02,334.77,343.02,335.71z"/>
		<path class="st0" d="M361.76,321.65v27.96c0,0.94-0.76,1.71-1.71,1.71h-6.9c-0.94,0-1.71-0.76-1.71-1.71v-27.96
			c0-0.94,0.76-1.71,1.71-1.71h6.9C360.99,319.94,361.76,320.71,361.76,321.65z"/>
		<path class="st0" d="M380.5,309.98v39.63c0,0.94-0.76,1.71-1.71,1.71h-6.9c-0.94,0-1.71-0.76-1.71-1.71v-39.63
			c0-0.94,0.76-1.71,1.71-1.71h6.9C379.74,308.27,380.5,309.04,380.5,309.98z"/>
	</g>
	<g>
		<path class="st7" d="M585.27,397.88c0,2.14,1.16,4,2.89,4.99l0.51-1.05c1.42-2.92,1.44-6.31,0.08-9.23
			C586.71,393.48,585.27,395.51,585.27,397.88z"/>
		<g>
			<path class="st8" d="M523.52,345.88l1.71-3.34c-0.47-2.74-0.67-5.73-0.51-8.93c0.04-0.72,0.09-1.46,0.16-2.2
				c3.57,0.32,14.04,0.74,21.75-4.15c-0.57,4.54,1.13,9.56,3.94,13.8c0.34-0.82,1.57-3.35,3.68-3.35c4.23,0,4.87,6.76,2.5,9.98
				c1.63,1.21,3.34,2.13,5.04,2.64c0,0,0.01-0.01,0.02-0.02v19.46h-16.4v-8.48c-2.2,0.81-4.16,1.27-5.54,1.27
				c-4.13,0-10.39-5.54-13.42-15.02h-1.91c-0.63,0-1.14-0.51-1.14-1.14C523.4,346.22,523.44,346.04,523.52,345.88z"/>
			<path class="st9" d="M556.76,347.7c2.36-3.22,1.72-9.98-2.5-9.98c-2.11,0-3.34,2.53-3.68,3.35c-2.81-4.24-4.51-9.27-3.94-13.8
				c-7.7,4.89-18.18,4.47-21.75,4.15c-0.07,0.74-0.13,1.48-0.16,2.2c-0.31-0.29-1.03-1.11-1.09-2.34c0,0,0,0,0,0
				c0-0.03,0-0.07,0-0.1c0-0.01,0-0.02,0-0.03c0-0.01,0-0.01,0-0.02c0.09-7,6.51-18.9,22.15-18.9c16.58,0,19.68,10.79,19.68,10.79
				s5.71,3.13,5.71,9.43c0,8.28-8.93,17.42-9.36,17.86c-0.01,0.01-0.02,0.02-0.02,0.02C560.1,349.82,558.39,348.91,556.76,347.7z"/>
			<path class="st7" d="M545.41,369.77v-8.48c4.55-1.67,10.16-4.82,13.91-8.39L545.41,369.77z"/>
			<circle class="st10" cx="542.7" cy="345.12" r="4.45"/>
			<g>
				<path class="st9" d="M533.19,351.99c0.89,0,1.5-0.34,1.88-0.65c0.46-0.38,0.66-0.8,0.68-0.84c0.09-0.21,0-0.45-0.21-0.54
					c-0.21-0.09-0.45,0-0.54,0.2c-0.03,0.05-0.57,1.17-2.15,0.99c-0.22-0.03-0.43,0.14-0.45,0.36c-0.03,0.22,0.14,0.43,0.36,0.45
					C532.91,351.98,533.05,351.99,533.19,351.99z"/>
			</g>
			<g>
				<path class="st9" d="M530.69,339.67c0.49,0,0.89-0.4,0.89-0.89v-1.67c0-0.49-0.4-0.89-0.89-0.89s-0.89,0.4-0.89,0.89v1.67
					C529.79,339.27,530.19,339.67,530.69,339.67z"/>
			</g>
			<path class="st11" d="M524.66,337.53h2.76v-5.08c0-0.23,0.18-0.41,0.41-0.41c0.23,0,0.41,0.18,0.41,0.41v10.99
				c0,0.23-0.18,0.41-0.41,0.41c-0.23,0-0.41-0.18-0.41-0.41v-5.08h-2.76c-0.23,0-0.41-0.18-0.41-0.41
				C524.25,337.72,524.43,337.53,524.66,337.53z"/>
		</g>
		<path class="st12" d="M549.52,446.29"/>
		<g>
			<path class="st5" d="M497.55,403.31l46.15,17.98l13.62,18.14c2.1,2.8,5.06,4.76,8.38,5.64l-20.19,13.9l-38.64-20.33l1.59,49.36
				h-17.33l-14.49-66.85C474.02,408.99,485.97,398.79,497.55,403.31z"/>
			<path class="st13" d="M508.47,494.95v12.25c0,1.43-1.16,2.59-2.59,2.59h-34.73c-0.33,0-0.6-0.27-0.6-0.6v-2.26
				c0-1.09,0.64-2.08,1.63-2.53l20.63-9.44H508.47z"/>
			<polygon class="st8" points="508.47,487.99 508.47,494.95 492.8,494.95 491.14,487.99 			"/>
			<polygon class="st14" points="524.22,447.75 545.51,458.96 561.4,447.75 			"/>
			<path class="st14" d="M477.08,412.88c1.32,0.88,2.9,1.39,4.6,1.39c4.58,0,8.29-3.71,8.29-8.3c0-1.26-0.28-2.46-0.79-3.53
				C483.6,403.44,478.89,407.5,477.08,412.88z"/>
		</g>
		<path class="st8" d="M582.99,381.76l5.5,10.31c1.62,3.04,1.69,6.66,0.18,9.76l-0.47,0.97l-4.28-17.73
			C583.65,383.95,583.34,382.85,582.99,381.76z"/>
		<path class="st4" d="M565.7,445.05c-0.11-0.03-0.22-0.06-0.32-0.09c-3.18-0.92-6.02-2.84-8.06-5.55l-13.62-18.14l0,0l1.07-36.87
			l-13.73,2.99l-5.45-17.19l36.21-14.28l0,0l0,0c10.11,5.64,17.66,14.89,21.19,25.83c0.35,1.09,0.66,2.19,0.93,3.31l4.28,17.73
			l10.49,43.49l0,0l-29.44-0.73C568.04,445.53,566.85,445.36,565.7,445.05z"/>
		<polygon class="st15" points="544.58,390.83 562.56,379.52 544.77,384.41 		"/>
		<g>
			<path class="st13" d="M593.32,493.7l6.46-6.31c1.26-1.23,3.22-1.38,4.66-0.35l27.7,19.86c0.36,0.25,0.44,0.75,0.18,1.11
				l-1.22,1.7c-0.64,0.9-1.69,1.42-2.79,1.4l-11.12-0.22L593.32,493.7z"/>
			<polygon class="st8" points="593.32,510.89 617.19,510.89 593.32,493.7 593.32,493.7 			"/>
			<path class="st5" d="M514.6,480.49l50.78-35.53c0.11,0.03,0.21,0.06,0.32,0.09c1.15,0.3,2.34,0.48,3.55,0.51l29.44,0.73l0,0v0
				c0,12.66-7.6,24.07-19.28,28.96l-29.9,12.5l43.81,5.96v17.18h-69.15C507.84,510.89,501.21,489.86,514.6,480.49z"/>
			<path class="st14" d="M512.06,505.77c2.35-1.47,3.9-4.07,3.9-7.04c0-4.53-3.63-8.21-8.15-8.29
				C506.62,495.88,508.27,501.73,512.06,505.77z"/>
		</g>
		<path class="st8" d="M451.8,332.79l10.43-3.47c0.62-0.21,1.29-0.15,1.87,0.16l6.45,3.44l1.46,0.32c0.54,0.12,0.99,0.5,1.2,1.02
			l2.54,6.35l43.26,31.97l6.57-2.36l5.45,17.19l-12.7,2.62c-2.95,0.61-6.01-0.31-8.13-2.45l-40.61-40.89l-7.46-4.38
			c-0.69-0.4-1.12-1.13-1.15-1.93l-0.03-0.79l-0.48-0.47c-0.51-0.49-0.77-1.18-0.71-1.89l0.06-0.66l0,0
			c-0.54-0.53-0.79-1.29-0.67-2.04l0.11-0.66l-7.03,0.82c-0.44,0.05-0.86-0.2-1.03-0.61C450.99,333.56,451.27,332.96,451.8,332.79z"
			/>
		<path class="st7" d="M509.49,386.84l0.73,0.73c2.12,2.14,5.18,3.06,8.13,2.45l0.6-0.12v0c-0.34-2.7-2.65-4.79-5.45-4.79
			C511.91,385.11,510.49,385.77,509.49,386.84z"/>
	</g>
	<g>
		<g>
			<path class="st9" d="M256.47,206.79c0-10.74-9.48-19.45-23.68-19.45c-11.81,0-15.87,6.52-15.87,6.52s-11.16,2.41-11.16,16.28
				c0,12.89,0,35.07,0,35.07h18.34h0.93h13.54h14.72v-28.88C254.47,214.9,256.47,211.72,256.47,206.79z M234.42,238.2
				c-0.99,0-2.08-0.18-3.21-0.5v7.52h-16.23v-19.33c-0.11-0.31-0.22-0.64-0.33-0.99c-7.19-0.69-6.9-12.58-2.62-12.58
				c0.06,0,0.11,0.01,0.17,0.01c0,0,0,0,0,0c17.97,5.74,30.05-3.67,34.01-10.21c0,4.56,5.05,9.01,6.85,9.42
				C252.8,227.84,241.13,238.2,234.42,238.2z"/>
			<path class="st8" d="M231.21,239.46v-1.77c1.13,0.32,2.22,0.5,3.21,0.5c6.71,0,18.38-10.35,18.65-26.66
				c-1.8-0.41-6.85-4.86-6.85-9.42c-3.95,6.54-16.04,15.95-34.01,10.21c0,0,0,0,0,0c-0.06-0.01-0.11-0.01-0.17-0.01
				c-4.27,0-4.57,11.89,2.62,12.58c0.11,0.35,0.22,0.68,0.33,0.99v13.01l-12.71,5.99v15.69h42.23v-17.1L231.21,239.46L231.21,239.46
				z"/>
			<path class="st7" d="M244.51,260.56v-17.1l-13.3-4l0-1.77c-3.76-1.06-8.03-3.63-11.17-6.03L244.51,260.56z"/>
			<circle class="st10" cx="222.54" cy="220.87" r="4.43"/>
			<path class="st10" d="M252.49,217.2c-0.56,2.97-1.5,5.68-2.69,8.1c-2.34-0.12-4.2-2.05-4.2-4.42c0-2.44,1.98-4.43,4.43-4.43
				C250.94,216.45,251.79,216.73,252.49,217.2z"/>
			<g>
				
					<ellipse transform="matrix(0.9239 -0.3827 0.3827 0.9239 -63.1236 110.0248)" class="st16" cx="245" cy="213.68" rx="5.45" ry="5.45"/>
				
					<ellipse transform="matrix(0.9239 -0.3827 0.3827 0.9239 -64.3872 103.6723)" class="st16" cx="228.4" cy="213.68" rx="5.45" ry="5.45"/>
				<path class="st11" d="M245,207.41c-3.23,0-5.9,2.46-6.24,5.6c-1.76-0.83-3.31-0.38-4.13,0c-0.34-3.14-3.01-5.6-6.24-5.6
					c-3.46,0-6.27,2.81-6.27,6.27c0,3.46,2.81,6.27,6.27,6.27c3.38,0,6.15-2.69,6.27-6.04c0.52-0.3,2.18-1.06,4.07,0.01
					c0.13,3.35,2.89,6.04,6.27,6.04c3.46,0,6.27-2.81,6.27-6.27C251.28,210.23,248.46,207.41,245,207.41z M228.4,219.14
					c-3.01,0-5.45-2.45-5.45-5.45c0-3.01,2.45-5.45,5.45-5.45c3.01,0,5.45,2.45,5.45,5.45C233.86,216.69,231.41,219.14,228.4,219.14
					z M245,219.14c-3.01,0-5.45-2.45-5.45-5.45c0-3.01,2.45-5.45,5.45-5.45c3.01,0,5.45,2.45,5.45,5.45
					C250.46,216.69,248.01,219.14,245,219.14z"/>
			</g>
			<g>
				<g>
					<path class="st9" d="M245.01,215.42c-0.49,0-0.9-0.4-0.9-0.9v-1.67c0-0.49,0.4-0.9,0.9-0.9s0.9,0.4,0.9,0.9v1.67
						C245.9,215.02,245.5,215.42,245.01,215.42z"/>
				</g>
				<g>
					<path class="st9" d="M228.68,215.42c-0.49,0-0.9-0.4-0.9-0.9v-1.67c0-0.49,0.4-0.9,0.9-0.9c0.49,0,0.9,0.4,0.9,0.9v1.67
						C229.57,215.02,229.17,215.42,228.68,215.42z"/>
				</g>
			</g>
			<g>
				<path class="st9" d="M235.07,228.33c-1.6,0-2.69-0.6-3.35-1.15c-0.83-0.69-1.18-1.44-1.19-1.47c-0.09-0.21,0-0.45,0.21-0.54
					c0.21-0.09,0.45,0,0.54,0.2l0,0c0.05,0.1,1.18,2.48,4.48,2.1c0.23-0.03,0.43,0.14,0.45,0.36c0.03,0.23-0.14,0.43-0.36,0.45
					C235.58,228.31,235.32,228.33,235.07,228.33z"/>
			</g>
		</g>
		<polygon class="st8" points="261.83,488.75 263.51,495.72 281.82,501.47 279.19,488.75 		"/>
		<polygon class="st8" points="200.13,488.75 200.63,497.37 199.49,497.79 198.74,501.48 217.03,495.72 217.49,488.75 		"/>
		<path class="st13" d="M295.94,504.18l-14.89-6.4l0.76,3.69l-18.31-5.75v5.25c0,1.85,0.97,3.52,2.48,4.46l1.57,4.5
			c0.14,0.39,0.5,0.65,0.92,0.65c0.54,0,0.97-0.43,0.97-0.97v-2.93l12.52,3.9h12.66c1.84,0,3.33-1.49,3.33-3.33l0,0
			C297.96,505.91,297.17,504.71,295.94,504.18z"/>
		<path class="st13" d="M217.05,500.92l-0.02-5.25l-18.29,5.8l0.75-3.69l-14.87,6.44c-1.22,0.53-2.01,1.74-2.01,3.07l0,0
			c0.01,1.84,1.5,3.33,3.34,3.32l12.66-0.04l12.94-4.07l0.01,3.07c0,0.54,0.44,0.97,0.97,0.97c0.41,0,0.78-0.26,0.91-0.65l1.71-4.93
			C216.34,503.98,217.06,502.51,217.05,500.92z"/>
		<path class="st5" d="M202.9,313.23l-6.75,28.6c-1.95,8.26-2.72,16.75-2.28,25.23l6.27,121.69h17.36l7.41-126.29l36.93,126.29
			h17.36l-30.56-175.52H202.9z"/>
		<path class="st11" d="M225.87,252.82c3.08,0,5.55-2.97,7.21-5.97H215.5C218.18,249.84,221.85,252.82,225.87,252.82z"/>
		<path class="st3" d="M258.76,253.05c-2.71-4.22-6.83-7.33-11.62-8.79l-11.65-3.55c0,0.49-0.85,3.33-2.4,6.14
			c-1.66,3.01-4.13,5.97-7.21,5.97c-4.01,0-7.69-2.98-10.37-5.97c-2.72-3.04-4.42-6.11-4.42-6.11l-12.1,5.61
			c-4.95,2.29-8.6,6.71-9.92,12.01l-8.93,35.9l16.42,0l4.03-13.94l2.32,32.91h45.72l4.15-35.02l10.89,9.8l9.03-13.23L258.76,253.05z
			"/>
		<path class="st8" d="M324.65,239.46l-0.7-0.12l-0.11-0.43c-0.2-0.8-0.9-1.38-1.73-1.44l-9.76-0.66l-6.79-2.76l3.79-4.73
			c0.63-0.78,0.54-1.92-0.2-2.6l-8,6.16c-0.78,0.6-1.44,1.36-1.91,2.23l-2.2,4l-0.01-0.01L263.67,288l4.58,4.19
			c3.79,3.46,9.84,2.34,12.13-2.26l21.68-43.46l7.9,0.75c1.78,0.17,3.57-0.01,5.28-0.53l4.18-1.26c0.71-0.21,1.08-0.99,0.8-1.68
			l2.98-0.57c0.56-0.11,0.98-0.57,1.04-1.13l0.05-0.48h0.18c0.59,0,1.06-0.47,1.06-1.06v0
			C325.54,239.99,325.16,239.55,324.65,239.46z"/>
		<polygon class="st6" points="272.71,274.77 260.02,284.71 263.67,288 		"/>
		<g>
			<path class="st11" d="M226.32,257.1c-2.54,0-5.13-0.77-7.69-2.3c-2.03-1.21-4.05-2.9-6-5.01c-3.31-3.59-5.33-7.25-5.35-7.29
				l0.67-0.31c0.02,0.04,1.98,3.58,5.23,7.1c1.9,2.06,3.87,3.7,5.83,4.87c2.44,1.45,4.9,2.19,7.3,2.19c2.27,0,4.32-0.76,6.08-2.26
				c1.43-1.21,2.68-2.9,3.71-5.04c1.78-3.65,2.33-7.41,2.34-7.45l0.72,0.22c-0.02,0.16-0.55,3.79-2.39,7.55
				c-1.08,2.22-2.4,4-3.9,5.28C230.98,256.28,228.77,257.1,226.32,257.1z"/>
		</g>
		<circle class="st14" cx="253.57" cy="402.03" r="8.31"/>
		<circle class="st14" cx="210.04" cy="402.03" r="8.31"/>
		<path class="st6" d="M257.63,251.46c-0.84,0.55-1.84,0.87-2.92,0.87c-2.93,0-5.31-2.38-5.31-5.31c0-0.63,0.11-1.24,0.31-1.8
			C252.81,246.64,255.53,248.78,257.63,251.46z"/>
		<path class="st6" d="M199.05,250.04c0,2.93-2.38,5.31-5.31,5.31c-1.18,0-2.26-0.38-3.14-1.03c1.65-3.15,4.21-5.76,7.38-7.47
			C198.66,247.74,199.05,248.84,199.05,250.04z"/>
		<path class="st14" d="M215.75,323.21l38.11-1.44c0.69-0.03,1.22-0.6,1.19-1.29l-2.04-53.98c-0.03-0.69-0.6-1.22-1.29-1.19
			l-38.11,1.44c-0.69,0.03-1.22,0.6-1.19,1.29l2.04,53.98C214.49,322.7,215.07,323.23,215.75,323.21z"/>
		<path class="st14" d="M215.63,320.3l37.92,4.1c0.68,0.07,1.29-0.42,1.37-1.1l5.8-53.71c0.07-0.68-0.42-1.29-1.1-1.37l-37.92-4.1
			c-0.68-0.07-1.29,0.42-1.37,1.1l-5.8,53.71C214.46,319.61,214.95,320.22,215.63,320.3z"/>
		<path class="st8" d="M260.74,298.83c-0.03-0.72-0.35-1.4-0.89-1.88l-0.71-0.64l-0.03-0.34c-0.13-1.27-1.16-2.26-2.44-2.32
			l-4.61-0.23l2.43-3.75c0.16-0.25,0.21-0.56,0.14-0.85l0,0c-0.18-0.7-1-1.03-1.61-0.64l-13.12,8.28l-43.34-2.21l-16.42,0l-1.98,7
			c-1.54,5.47,2.91,10.76,8.56,10.18l53.17-5.54l15.12,2.32l0.67-0.18c1.16-0.31,1.97-1.36,1.98-2.56l0.01-0.93l0.03-0.01
			c0.99-0.44,1.62-1.44,1.58-2.53l-0.02-0.55l0.56-0.48C260.44,300.44,260.78,299.65,260.74,298.83z"/>
		<path class="st7" d="M188.07,306.78c0,1.98-1.04,3.71-2.61,4.68c-4.13-0.21-7.36-3.55-7.59-7.53c0.96-1.59,2.71-2.65,4.7-2.65
			C185.61,301.29,188.07,303.75,188.07,306.78z"/>
		<path class="st7" d="M279.34,291.51c-2.65,3.11-7.43,3.66-10.74,0.98c0.3-2.76,2.63-4.9,5.47-4.9
			C276.56,287.58,278.67,289.24,279.34,291.51z"/>
		<path class="st14" d="M217.71,323.13c0,0,33.85,6.98,33.85,6.95s-1.05-6.02-1.05-6.02l-14.88-1.61L217.71,323.13z"/>
		<polygon class="st13" points="216.97,266.62 217.08,295.31 220.19,266.5 		"/>
	</g>
</g>
</svg>
